<?xml version="1.0" encoding="iso-8859-1"?>
<!-- Generator: Adobe Illustrator 19.0.0, SVG Export Plug-In . SVG Version: 6.00 Build 0)  -->
<svg version="1.1" id="Layer_1" xmlns="http://www.w3.org/2000/svg" xmlns:xlink="http://www.w3.org/1999/xlink" x="0px" y="0px"
	 viewBox="0 0 496.159 496.159" style="enable-background:new 0 0 496.159 496.159;" xml:space="preserve">
<path style="fill:#334D5C;" d="M248.083,0.003C111.071,0.003,0,111.063,0,248.085c0,137.001,111.07,248.07,248.083,248.07
	c137.006,0,248.076-111.069,248.076-248.07C496.159,111.062,385.089,0.003,248.083,0.003z"/>
<path style="fill:#D6E2D3;" d="M346.382,456.118H149.288l-1.609,18.862c30.698,13.604,64.666,21.175,100.405,21.175
	c35.552,0,69.35-7.495,99.922-20.965L346.382,456.118z"/>
<path style="fill:#AFB2AD;" d="M334.601,75.524H162.133c-14.112,0-25.552,10.377-25.552,23.179v156.46
	c0,12.801,11.44,23.178,25.552,23.178h172.468c14.111,0,25.551-10.377,25.551-23.178V98.703
	C360.152,85.902,348.712,75.524,334.601,75.524z"/>
<path style="fill:#C0C9BD;" d="M334.601,84.014H162.133c-14.112,0-25.552,11.44-25.552,25.552v172.47
	c0,14.111,11.44,25.551,25.552,25.551h172.468c14.111,0,25.551-11.439,25.551-25.551v-172.47
	C360.152,95.454,348.712,84.014,334.601,84.014z"/>
<g>
	<path style="fill:#DFEADC;" d="M378.351,230.027c-5.278-33.757-70.57-52.622-125.817-52.622h-8.335
		c-55.248,0-122.035,20.974-125.817,52.622c-2.854,23.882,0.238,88.271,1.931,118.441c34.479,29.436,79.214,47.216,128.104,47.216
		c48.955,0,93.737-17.826,128.238-47.33C378.699,318.505,382.313,255.384,378.351,230.027z"/>
	<path style="fill:#DFEADC;" d="M388.721,230.027c-5.278-33.757-81.167-52.622-136.417-52.622h-8.334
		c-55.246,0-132.868,20.974-136.649,52.622c-2.855,23.882,40.43,195.92,41.739,226.091c0,0,46.499,15.029,94.266,15.029
		c47.833,0,104.028-15.142,104.028-15.142C348.932,426.155,392.685,255.384,388.721,230.027z"/>
</g>
<path style="fill:#D6E2D3;" d="M248.366,55.951c-47.408,0-85.842,31.466-85.842,75.229c0,69.808,38.435,89.617,85.842,89.617
	c47.413,0,85.843-19.81,85.843-89.617C334.209,87.417,295.778,55.951,248.366,55.951z"/>
<path style="fill:#E5EAE4;" d="M248.366,55.951c-47.408,0-85.842,31.466-85.842,75.229c0,32.897,8.534,54.691,22.522,68.539
	L311.758,79.576C296.06,64.775,273.473,55.951,248.366,55.951z"/>
<path style="fill:#9B9A8C;" d="M248.366,84.014c-37.392,0-67.705,22.084-67.705,56.601c0,60.374,30.313,74.761,67.705,74.761
	c37.394,0,67.706-14.387,67.706-74.761C316.072,106.098,285.759,84.014,248.366,84.014z"/>
<path style="fill:#8E8D85;" d="M292.163,96.389l-97.664,97.665c12.369,16.348,31.894,21.321,53.867,21.321
	c37.394,0,67.706-14.387,67.706-74.761C316.072,121.519,306.786,106.24,292.163,96.389z"/>
<g>
	<path style="fill:#B8BCB7;" d="M181.621,273.235l-32.789,88.64l-10.926,33.393c0.783,0.316,11.533-21.856,16.998-31.571
		C165.528,338.198,190.116,282.343,181.621,273.235z"/>
	<path style="fill:#B8BCB7;" d="M347.907,361.875l-32.786-88.64c-8.497,9.108,16.092,64.963,26.716,90.461
		c5.464,9.715,16.215,31.888,16.997,31.571L347.907,361.875z"/>
</g>
<g>
	<path style="fill:#DFEADC;" d="M434.534,409.687c-10.928-116.568-47.406-185.933-47.406-185.933l-69.516,54.945
		c0,0,6.568,20.313,21.857,66.176c6.679,20.035,26.764,66.329,31.62,80.292c1.575,4.527,5.522,23.146,7.72,33.767
		c20.922-12.999,39.768-29.02,55.925-47.46C434.613,410.328,434.534,409.687,434.534,409.687z"/>
	<path style="fill:#DFEADC;" d="M109.775,223.755c0,0-37.372,69.972-48.3,186.54c0,0-0.051,0.387-0.133,1.085
		c16.174,18.479,35.048,34.53,56.004,47.551c2.159-10.465,6.005-28.647,7.573-33.155c4.857-13.963,25.836-60.865,32.516-80.9
		c15.29-45.863,21.858-66.176,21.858-66.176L109.775,223.755z"/>
</g>
<g>
</g>
<g>
</g>
<g>
</g>
<g>
</g>
<g>
</g>
<g>
</g>
<g>
</g>
<g>
</g>
<g>
</g>
<g>
</g>
<g>
</g>
<g>
</g>
<g>
</g>
<g>
</g>
<g>
</g>
</svg>
